Simulation
nRows=36
nColumns=15
endheader
time  TH_x TH_y TH_z SC_y  SC_z  SC_x  AC_y  AC_z  AC_x  GH_y  GH_z  GH_yy  EL_x  PS_y
0.75  0.000000  0.000000  0.000000  -33.49458312691034  4.280065016654618  20.595110883017487  59.95357461872047  -1.3696076127041312  -11.699056475121298  21.939061290745144  32.96990957879046  -18.54278543929649  19.95330324400659  0.000000
0.765  0.000000  0.000000  0.000000  -33.635561093921204  4.484645919055657  20.812091895939254  60.02474159723892  -1.0183040610986471  -11.572343692015187  21.99249146011558  33.478040939608164  -18.868172131807732  19.74838390698823  0.000000
0.78  0.000000  0.000000  0.000000  -33.774542534243785  4.691557084145045  21.03561485296479  60.086981032507445  -0.6698414693706322  -11.447351375643263  22.052950624501158  33.971438018028344  -19.19301567024604  19.54248463680148  0.000000
0.7949999999999999  0.000000  0.000000  0.000000  -33.91291240531203  4.900678279943339  21.266643357501152  60.14099949246642  -0.3259456138512483  -11.323577176346062  22.1197152766552  34.45004219483934  -19.516923911918745  19.335900953246583  0.000000
0.8099999999999999  0.000000  0.000000  0.000000  -34.04990848350665  5.111707482171888  21.504513740412982  60.1874095624925  0.011547228495121142  -11.200236033159591  22.192087796932903  34.913823501622005  -19.83939544294922  19.129056969016425  0.000000
0.825  0.000000  0.000000  0.000000  -34.18707511517129  5.324763386077514  21.74998121056311  60.22706606762725  0.34073436815661096  -11.076416750181142  22.269298810245317  35.3628399217042  -20.159925701995885  18.922499079892813  0.000000
0.84  0.000000  0.000000  0.000000  -34.32373775687684  5.539627730472371  22.00218139686499  60.260942188629755  0.6597256380147194  -10.951085632408201  22.35047231322777  35.79716851037388  -20.477853698753023  18.716773865124722  0.000000
0.855  0.000000  0.000000  0.000000  -34.46155189668048  5.756457759431912  22.261767254907255  60.290271954906906  0.9666195982782907  -10.823072458437212  22.43450842074077  36.21693200840503  -20.79237457011272  18.512466283464374  0.000000
0.87  0.000000  0.000000  0.000000  -34.59995255920338  5.975009544568399  22.52771138390581  60.316409901295934  1.2595985111176127  -10.691167188796536  22.520222184518694  36.62231101954919  -21.102595776430046  18.310135090572494  0.000000
0.885  0.000000  0.000000  0.000000  -34.74070463493758  6.195413942062383  22.80050330338273  60.34089368016683  1.5369538824630269  -10.554101632439025  22.606245529478393  37.01353683685132  -21.407468892939338  18.110378889360057  0.000000
0.8999999999999999  0.000000  0.000000  0.000000  -34.883291811843286  6.417336729850292  23.078873666141785  60.36525256111309  1.7971928957292076  -10.41067171480254  22.69122396101219  37.39090258090099  -21.70594880618495  17.91377235200119  0.000000
0.9149999999999999  0.000000  0.000000  0.000000  -35.02946953559578  6.6408377027127505  23.36304145380621  60.39104911470938  2.0391329390633355  -10.259752963397505  22.773790996513927  37.754718511158174  -21.996928194246067  17.720929803896997  0.000000
0.9299999999999999  0.000000  0.000000  0.000000  -35.17866665143191  6.865356816041758  23.651383948255788  60.419673552493784  2.262016968676763  -10.100481330093192  22.852841584219373  38.10537925401053  -22.279520546851607  17.532462793727305  0.000000
0.945  0.000000  0.000000  0.000000  -35.33251736543885  7.090647464863852  23.943867294682743  60.452305850672886  2.4655780967963628  -9.932279694789328  22.927482419095913  38.44323805760808  -22.5528837720729  17.349047064053153  0.000000
0.96  0.000000  0.000000  0.000000  -35.48993601788179  7.316012057871635  24.23861011272209  60.48967273627689  2.650093803745769  -9.755111661372473  22.99722119522265  38.76855143178684  -22.816523456851822  17.171341665549306  0.000000
0.975  0.000000  0.000000  0.000000  -35.65194197949658  7.541128501402129  24.535324605917022  60.53215114502138  2.8164790147959984  -9.569270163902024  23.061815050867676  39.081429088273715  -23.069958379682827  17.000052930969332  0.000000
0.99  0.000000  0.000000  0.000000  -35.8169972162777  7.7650062551304835  24.831812309092292  60.57963876631772  2.9662051981713766  -9.375520913256393  23.121509520852733  39.38200573348605  -23.313129672867237  16.835882816399007  0.000000
1.005  0.000000  0.000000  0.000000  -35.98569647340327  7.987239556986353  25.1275503917982  60.63165336010449  3.1011205346125523  -9.17480740970909  23.176704730072352  39.67031080314043  -23.545974422463093  16.679563936075635  0.000000
1.02  0.000000  0.000000  0.000000  -36.15601494879159  8.207115025200977  25.42002378388741  60.68721823058777  3.2232912896240893  -8.968258475985548  23.228029281759795  39.94642112823441  -23.768623966213507  16.531833680611346  0.000000
1.035  0.000000  0.000000  0.000000  -36.328609656087764  8.424421208393554  25.7085387968792  60.745362668836115  3.3347501783896862  -8.75692047308397  23.27615627026466  40.210632849616225  -23.981203690887327  16.393510744540283  0.000000
1.05  0.000000  0.000000  0.000000  -36.501583911311776  8.638326201015218  25.990777296705264  60.80473626124197  3.437196214777638  -8.542061630546451  23.321672219067352  40.46361807966187  -24.1837820674853  16.265361317658456  0.000000
1.065  0.000000  0.000000  0.000000  -36.67440317318194  8.849057235552085  26.266770234738328  60.86396667925488  3.531873776362722  -8.325378166020464  23.364077318032248  40.70582359526334  -24.37594408132034  16.14794756610187  0.000000
1.08  0.000000  0.000000  0.000000  -36.84342580921895  9.055426598781581  26.53469971222411  60.9221060004499  3.6202997345135106  -8.108840946861413  23.401327083870008  40.93787593291701  -24.556128599916622  16.041271988612245  0.000000
1.095  0.000000  0.000000  0.000000  -37.00845466558911  9.256464961136858  26.794948018319175  60.978661770254504  3.703916772950948  -7.894007912846851  23.431142990752107  41.16042282882297  -24.72249667555026  15.945484719942622  0.000000
1.1099999999999999  0.000000  0.000000  0.000000  -37.168720274012486  9.451729459279541  27.045791205768467  61.03342287742222  3.783641880803831  -7.68166106193496  23.452085293314965  41.37426387018029  -24.873927902990378  15.86121410079935  0.000000
1.125  0.000000  0.000000  0.000000  -37.32655331319586  9.64094609164751  27.28803940478831  61.08675649428603  3.8603970850337994  -7.47239858462493  23.46227558594639  41.579726174048055  -25.00878049368123  15.788891110030244  0.000000
1.14  0.000000  0.000000  0.000000  -37.48111504892931  9.82215867178202  27.52028677450662  61.139088040342614  3.9354735645448122  -7.267564090534615  23.459405519534872  41.77750849135496  -25.12537607191849  15.72845907761173  0.000000
1.155  0.000000  0.000000  0.000000  -37.63402260028206  9.994440589681053  27.743206394354743  61.190837326933924  4.010027003729103  -7.0683120009477305  23.441422717267645  41.9677763111746  -25.222257979242613  15.679995027882521  0.000000
1.17  0.000000  0.000000  0.000000  -37.78450821906645  10.156377354060483  27.954999262380454  61.24215389303622  4.085075559689089  -6.875402242309913  23.407263853505295  42.150879094277464  -25.298516712633514  15.643489845405368  0.000000
1.185  0.000000  0.000000  0.000000  -37.934435812804935  10.306727059108404  28.155908463120355  61.29397313121792  4.16187083807834  -6.689852218159998  23.35714492073544  42.32694008372831  -25.35446451599529  15.61860350148887  0.000000
1.2  0.000000  0.000000  0.000000  -38.08315110192812  10.44402335520536  28.34367436324415  61.34673208563112  4.24132185948474  -6.512478163300426  23.292705736321707  42.49609554520947  -25.391330355134645  15.605127310015115  0.000000
1.2149999999999999  0.000000  0.000000  0.000000  -38.23204638722363  10.567507047864225  28.51841354138996  61.40073529785017  4.324070487276322  -6.344518200573979  23.216112061640345  42.657553750977165  -25.410843879001476  15.603029696758727  0.000000
1.23  0.000000  0.000000  0.000000  -38.37859877021438  10.674563960330383  28.677728192345135  61.455911768973515  4.410729800042037  -6.18848638235296  23.129332425228796  42.81069258775291  -25.414512773555124  15.612154704337557  0.000000
1.2449999999999999  0.000000  0.000000  0.000000  -38.522846963905494  10.763508856308677  28.82161046997856  61.51252288182853  4.501467553835206  -6.047002121872707  23.03527004549862  42.953723553878234  -25.404849006213567  15.631952252197504  0.000000
1.26  0.000000  0.000000  0.000000  -38.66198846912389  10.83242289460686  28.947407409864592  61.56991922740812  4.595658504090677  -5.922539589798305  22.937853799180367  43.084518892527264  -25.384681261903822  15.662053693108012  0.000000
1.275  0.000000  0.000000  0.000000  -38.79513358051503  10.879309779159  29.054857037420202  61.62828326281822  4.693066993823886  -5.8187169697936705  22.841941798971853  43.19937044667685  -25.357865771315016  15.701855495703736  0.000000
